<svg width="24" height="24" viewBox="0 0 24 24" fill="none" xmlns="http://www.w3.org/2000/svg">
<path d="M10.5186 3.84961C10.6984 3.84961 10.8572 3.91188 10.9824 4.03711C11.1075 4.1623 11.1689 4.32025 11.1689 4.5C11.1689 4.67975 11.1075 4.8377 10.9824 4.96289C10.8572 5.08812 10.6984 5.15039 10.5186 5.15039H4.61621C4.50887 5.15039 4.40381 5.19342 4.29785 5.29883C4.19251 5.40371 4.14996 5.50777 4.15039 5.61523V18.3848C4.15039 18.4913 4.19327 18.596 4.29883 18.7021C4.40387 18.8077 4.50762 18.85 4.61426 18.8496H10.5186C10.6984 18.8496 10.8572 18.9119 10.9824 19.0371C11.1075 19.1623 11.1689 19.3202 11.1689 19.5C11.1689 19.6798 11.1075 19.8377 10.9824 19.9629C10.8572 20.0881 10.6984 20.1504 10.5186 20.1504H4.61621C4.11854 20.1504 3.69522 19.9821 3.35742 19.6445C3.01955 19.3067 2.85033 18.8822 2.84961 18.3838V5.61621C2.84961 5.11821 3.01883 4.6943 3.35742 4.35645C3.69576 4.01902 4.11916 3.85033 4.61621 3.84961H10.5186ZM15.4395 8.50879C15.6179 8.50604 15.7756 8.58222 15.9082 8.71484L18.5225 11.3281L18.5879 11.4004C18.7324 11.5733 18.8076 11.7744 18.8076 12C18.8076 12.2577 18.7094 12.4838 18.5215 12.6719L15.9082 15.2852C15.7848 15.4086 15.633 15.4754 15.46 15.4814C15.2774 15.4877 15.1165 15.4132 14.9824 15.2783L14.9814 15.2773C14.8529 15.1448 14.7795 14.9889 14.7822 14.8135C14.7843 14.6832 14.8268 14.565 14.9023 14.46L14.9883 14.3594L16.6973 12.6504H8.69238C8.51296 12.6504 8.35458 12.588 8.22949 12.4629C8.10472 12.338 8.04289 12.1804 8.04199 12.001C8.04115 11.8205 8.10327 11.6615 8.22949 11.5361C8.35505 11.4116 8.51311 11.3496 8.69238 11.3496H16.6973L14.9834 9.63574C14.893 9.546 14.8331 9.44004 14.8057 9.32129L14.7891 9.19824C14.7801 9.01764 14.8508 8.85742 14.9814 8.72266L15.082 8.63379C15.1877 8.55558 15.3072 8.51088 15.4395 8.50879Z" fill="#F8AD3C" stroke="#F8AD3C" stroke-width="0.3"/>
</svg>
