<svg width="22" height="22" viewBox="0 0 22 22" fill="none" xmlns="http://www.w3.org/2000/svg">
<path d="M11 2.65039C11.2089 2.65039 11.409 2.73317 11.5566 2.88086C11.7043 3.02854 11.7871 3.22864 11.7871 3.4375C11.7871 3.64636 11.7043 3.84646 11.5566 3.99414C11.409 4.14183 11.2089 4.22461 11 4.22461H4.22461V17.7754H17.7754V11C17.7754 10.7911 17.8582 10.591 18.0059 10.4434C18.1535 10.2957 18.3536 10.2129 18.5625 10.2129C18.7714 10.2129 18.9715 10.2957 19.1191 10.4434C19.2668 10.591 19.3496 10.7911 19.3496 11V18.5625C19.3496 18.7714 19.2668 18.9715 19.1191 19.1191C18.9715 19.2668 18.7714 19.3496 18.5625 19.3496H3.4375C3.22864 19.3496 3.02854 19.2668 2.88086 19.1191C2.73318 18.9715 2.65039 18.7714 2.65039 18.5625V3.4375C2.65039 3.22864 2.73317 3.02854 2.88086 2.88086C3.02854 2.73317 3.22864 2.65039 3.4375 2.65039H11Z" fill="#333333" stroke="#333333" stroke-width="0.2"/>
<path d="M17.7134 2.13086C18.2102 2.13086 18.6889 2.30202 19.0718 2.61133V2.5918L19.2427 2.7627C19.4434 2.96341 19.6027 3.20163 19.7114 3.46387C19.8202 3.72632 19.8765 4.00789 19.8765 4.29199C19.8764 4.57604 19.8202 4.85771 19.7114 5.12012C19.6027 5.38232 19.4434 5.62061 19.2427 5.82129L12.1128 12.9512L12.1118 12.9502C11.9915 13.0708 11.8362 13.1505 11.6675 13.1748L9.39893 13.499C9.27781 13.5164 9.15369 13.5054 9.0376 13.4668C8.92166 13.4282 8.81642 13.3627 8.72998 13.2764C8.64346 13.1898 8.5782 13.0839 8.53955 12.9678C8.50097 12.8518 8.48995 12.7284 8.50732 12.6074L8.83154 10.3389C8.85538 10.1704 8.93319 10.0141 9.05322 9.89355L9.0542 9.89258L16.1841 2.76367C16.5896 2.35827 17.14 2.13087 17.7134 2.13086ZM17.7163 3.69629C17.6385 3.69702 17.5613 3.71341 17.4897 3.74414C17.4181 3.77493 17.3535 3.8199 17.2993 3.87598L17.2983 3.87695L10.3521 10.8203L10.2124 11.7891L11.1841 11.6504L18.1284 4.70801L18.1304 4.70703C18.1865 4.65284 18.2304 4.5873 18.2612 4.51562C18.292 4.44398 18.3084 4.36703 18.3091 4.28906C18.3097 4.2111 18.2947 4.13369 18.2651 4.06152C18.2356 3.98951 18.1922 3.9242 18.1372 3.86914C18.082 3.81398 18.016 3.76977 17.9438 3.74023C17.8718 3.71082 17.7942 3.69561 17.7163 3.69629Z" fill="#333333" stroke="#333333" stroke-width="0.2"/>
</svg>
