<svg width="1358" height="1359" viewBox="0 0 1358 1359" fill="none" xmlns="http://www.w3.org/2000/svg">
<path d="M733.044 118.053C554.251 33.9287 438.348 158.02 404.486 240.561L398.8 259.35C410.99 422.171 245.426 481.573 157.384 487.792C21.9347 516.286 20.806 655.136 42.2521 715.063C76.8493 811.738 111.106 879.58 118.442 910.109C110.315 1063.43 126.344 1126.64 135.374 1139.08C232.897 1315.47 406.273 1274.76 480.77 1232.36C610.801 1133.31 715.549 1141.34 751.669 1157.73C881.7 1250 998.864 1256.1 1041.19 1247.62C1260.62 1174.35 1221.79 997.738 1174.95 918.589C1116.7 763.909 1199.22 611.038 1247.75 553.938C1383.2 346.341 1312.09 220.947 1259.6 184.199C1205.42 119.07 1046.27 181.372 958.229 223.208C895.584 241.865 768.036 153.105 733.044 118.053Z" stroke="#F8AD3C" stroke-width="35.3258"/>
<path d="M706.725 156.744C534.645 75.7703 423.093 195.214 390.502 274.664L385.029 292.749C396.762 449.471 237.414 506.649 152.677 512.635C22.3126 540.062 21.2262 673.711 41.8672 731.394C75.1655 824.448 108.136 889.749 115.197 919.135C107.375 1066.72 122.802 1127.55 131.493 1139.53C225.355 1309.31 392.221 1270.13 463.922 1229.32C589.072 1133.98 689.887 1141.7 724.65 1157.48C849.8 1246.29 962.565 1252.17 1003.3 1244.01C1214.49 1173.48 1177.12 1003.48 1132.04 927.297C1075.98 778.411 1155.4 631.265 1202.11 576.304C1332.47 376.482 1264.03 255.784 1213.52 220.412C1161.37 157.723 1008.19 217.692 923.456 257.961C863.163 275.918 740.403 190.483 706.725 156.744Z" fill="#00A39D"/>
<path d="M592.765 484.266C598.834 480.656 605.305 477.451 612.178 474.651C619.051 471.852 626.295 469.613 633.909 467.934C641.678 466.286 649.848 465.448 658.419 465.419C667.176 465.266 676.364 466.17 685.983 468.132C698.859 470.758 710.27 475.025 720.215 480.931C730.347 486.715 738.595 493.81 744.96 502.218C751.512 510.503 755.978 519.898 758.361 530.403C760.774 540.752 760.779 551.822 758.374 563.613C755.969 575.403 752.174 585.294 746.989 593.286C741.836 601.123 735.973 607.683 729.401 612.968C722.829 618.253 715.95 622.667 708.763 626.211C701.608 629.599 694.811 632.818 688.372 635.868C682.119 638.794 676.549 641.94 671.661 645.306C666.96 648.549 663.715 652.573 661.927 657.38L649.92 691.289L615.945 684.36L620.286 645.251C620.997 637.801 623.442 631.755 627.621 627.113C631.799 622.471 636.923 618.345 642.992 614.735C649.216 611.157 655.858 607.906 662.918 604.983C670.165 601.937 677.041 598.33 683.547 594.162C690.052 589.995 695.831 585.033 700.884 579.277C705.936 573.52 709.396 566.066 711.263 556.912C712.497 550.862 712.441 545.195 711.094 539.911C709.78 534.472 707.376 529.619 703.884 525.351C700.391 521.084 696.042 517.45 690.837 514.449C685.631 511.448 679.771 509.283 673.255 507.954C664.102 506.087 656.123 505.591 649.32 506.466C642.516 507.34 636.596 508.637 631.559 510.357C626.553 511.922 622.355 513.49 618.965 515.06C615.606 516.476 612.918 516.978 610.901 516.567C606.092 515.586 602.951 512.764 601.478 508.1L592.765 484.266ZM581.106 769.604C582.024 765.105 583.654 761.075 585.996 757.513C588.526 753.827 591.487 750.795 594.881 748.417C598.43 746.071 602.317 744.44 606.544 743.524C610.926 742.64 615.366 742.657 619.865 743.575C624.364 744.493 628.379 746.2 631.909 748.698C635.595 751.227 638.611 754.266 640.957 757.815C643.304 761.364 644.919 765.329 645.803 769.711C646.718 773.937 646.717 778.3 645.799 782.799C644.85 787.453 643.127 791.546 640.629 795.076C638.131 798.606 635.108 801.545 631.559 803.891C628.01 806.238 624.061 807.775 619.711 808.504C615.484 809.419 611.122 809.418 606.623 808.501C602.124 807.583 598.031 805.86 594.346 803.33C590.784 800.988 587.829 798.042 585.483 794.494C583.292 790.976 581.738 787.104 580.823 782.878C580.062 778.683 580.157 774.258 581.106 769.604Z" fill="#F8AD3C"/>
</svg>
